<?xml version="1.0" encoding="utf-8"?>
<!-- Generator: Adobe Illustrator 16.0.0, SVG Export Plug-In . SVG Version: 6.00 Build 0)  -->
<!DOCTYPE svg PUBLIC "-//W3C//DTD SVG 1.1//EN" "http://www.w3.org/Graphics/SVG/1.1/DTD/svg11.dtd">
<svg version="1.1" id="Layer_1" xmlns="http://www.w3.org/2000/svg" xmlns:xlink="http://www.w3.org/1999/xlink" x="0px" y="0px"
	 width="19.851px" height="42.428px" viewBox="0 0 19.851 42.428" enable-background="new 0 0 19.851 42.428" xml:space="preserve">
<circle fill="#323232" cx="9.817" cy="32.478" r="9.388"/>
<path fill="#323232" d="M9.817,24.341c4.486,0,8.137,3.648,8.137,8.137c0,4.486-3.651,8.136-8.137,8.136
	c-4.486,0-8.136-3.649-8.136-8.136C1.681,27.99,5.331,24.341,9.817,24.341z"/>
<circle fill="#323232" cx="9.818" cy="9.967" r="9.388"/>
<path fill="#323232" d="M9.818,18.104c-4.486,0-8.137-3.649-8.137-8.137c0-4.487,3.651-8.137,8.137-8.137
	c4.486,0,8.136,3.65,8.136,8.137C17.954,14.455,14.305,18.104,9.818,18.104z"/>
<path fill="#F3F5F2" d="M11.82,5.463c-0.245-0.244-0.64-0.244-0.885,0l-4.059,4.06C6.754,9.646,6.694,9.806,6.694,9.967
	s0.06,0.322,0.183,0.444l4.059,4.059c0.245,0.245,0.64,0.245,0.885,0c0.245-0.243,0.245-0.64,0-0.885L8.202,9.967l3.618-3.62
	C12.065,6.104,12.065,5.708,11.82,5.463z"/>
<path fill="#F3F5F2" d="M7.815,36.982c0.245,0.244,0.64,0.244,0.885,0l4.059-4.061c0.123-0.122,0.183-0.282,0.183-0.443
	c0-0.162-0.06-0.322-0.183-0.445L8.7,27.974c-0.245-0.244-0.64-0.244-0.885,0s-0.245,0.641,0,0.885l3.618,3.619l-3.618,3.619
	C7.57,36.341,7.57,36.737,7.815,36.982z"/>
</svg>
