<?xml version="1.0" encoding="utf-8"?>
<!-- Generator: Adobe Illustrator 16.0.0, SVG Export Plug-In . SVG Version: 6.00 Build 0)  -->
<!DOCTYPE svg PUBLIC "-//W3C//DTD SVG 1.1//EN" "http://www.w3.org/Graphics/SVG/1.1/DTD/svg11.dtd">
<svg version="1.1" id="Layer_1" xmlns="http://www.w3.org/2000/svg" xmlns:xlink="http://www.w3.org/1999/xlink" x="0px" y="0px"
	 width="19.851px" height="42.428px" viewBox="0 0 19.851 42.428" enable-background="new 0 0 19.851 42.428" xml:space="preserve">
<path fill="#323232" d="M9.817,23.089c-5.186,0-9.387,4.203-9.387,9.389c0,5.185,4.201,9.387,9.387,9.388
	c5.185,0,9.388-4.203,9.388-9.388C19.205,27.292,15.002,23.089,9.817,23.089z M9.817,40.614c-4.486,0-8.136-3.649-8.136-8.136
	c0-4.488,3.649-8.137,8.136-8.137c4.486,0,8.137,3.648,8.137,8.137C17.954,36.964,14.303,40.614,9.817,40.614z"/>
<path fill="#323232" d="M9.818,0.58c-5.185,0-9.388,4.203-9.388,9.388c0,5.186,4.203,9.388,9.388,9.388
	c5.186,0,9.387-4.202,9.387-9.388C19.205,4.782,15.004,0.58,9.818,0.58z M9.818,18.104c-4.486,0-8.137-3.649-8.137-8.137
	c0-4.487,3.651-8.137,8.137-8.137c4.486,0,8.136,3.65,8.136,8.137C17.954,14.455,14.305,18.104,9.818,18.104z"/>
<path fill="#323232" d="M11.82,5.463c-0.245-0.244-0.64-0.244-0.885,0l-4.059,4.06C6.754,9.646,6.694,9.806,6.694,9.967
	s0.06,0.322,0.183,0.444l4.059,4.059c0.245,0.245,0.64,0.245,0.885,0c0.245-0.243,0.245-0.64,0-0.885L8.202,9.967l3.618-3.62
	C12.065,6.104,12.065,5.708,11.82,5.463z"/>
<path fill="#323232" d="M7.815,36.982c0.245,0.244,0.64,0.244,0.885,0l4.059-4.061c0.123-0.122,0.183-0.282,0.183-0.443
	c0-0.162-0.06-0.322-0.183-0.445L8.7,27.974c-0.245-0.244-0.64-0.244-0.885,0s-0.245,0.641,0,0.885l3.618,3.619l-3.618,3.619
	C7.57,36.341,7.57,36.737,7.815,36.982z"/>
</svg>
