<?xml version="1.0" encoding="utf-8"?>
<!-- Generator: Adobe Illustrator 16.0.0, SVG Export Plug-In . SVG Version: 6.00 Build 0)  -->
<!DOCTYPE svg PUBLIC "-//W3C//DTD SVG 1.1//EN" "http://www.w3.org/Graphics/SVG/1.1/DTD/svg11.dtd">
<svg version="1.1" id="Layer_1" xmlns="http://www.w3.org/2000/svg" xmlns:xlink="http://www.w3.org/1999/xlink" x="0px" y="0px"
	 width="60px" height="12.625px" viewBox="0 0 60 12.625" enable-background="new 0 0 60 12.625" xml:space="preserve">
<g>
	<g>
		<path fill="#F3F5F2" d="M28.042,3.063c-0.151-0.129-0.329-0.226-0.531-0.292c-0.204-0.064-0.422-0.096-0.656-0.096H25.44v7.146
			h0.36V7.229h1.054c0.159,0,0.333-0.017,0.526-0.052c0.193-0.031,0.375-0.104,0.548-0.218c0.172-0.113,0.314-0.272,0.428-0.479
			c0.113-0.208,0.17-0.486,0.17-0.833V4.248c0-0.265-0.043-0.497-0.129-0.694C28.312,3.356,28.193,3.192,28.042,3.063z
			 M28.166,5.646c0,0.279-0.047,0.499-0.139,0.659c-0.093,0.16-0.207,0.283-0.341,0.367c-0.135,0.085-0.277,0.14-0.429,0.164
			c-0.152,0.024-0.286,0.035-0.403,0.035h-1.054V3.032h1.054c0.187,0,0.357,0.025,0.516,0.072c0.158,0.048,0.296,0.12,0.413,0.214
			c0.117,0.095,0.21,0.221,0.279,0.378c0.068,0.157,0.104,0.34,0.104,0.551V5.646z M30.686,2.676L28.95,9.822h0.382l0.413-1.694
			h2.231l0.401,1.694h0.393l-1.724-7.146H30.686z M29.829,7.77l1.043-4.278l1.011,4.278H29.829z M36.061,6.979
			c0.119-0.073,0.229-0.165,0.325-0.28c0.095-0.118,0.173-0.261,0.232-0.435c0.057-0.174,0.087-0.38,0.087-0.618V4.248
			c0-0.265-0.046-0.497-0.135-0.694c-0.09-0.197-0.211-0.361-0.36-0.49c-0.152-0.129-0.329-0.226-0.532-0.292
			c-0.203-0.064-0.422-0.096-0.655-0.096h-1.415v7.146h0.371V7.229h1.187c0.05,0,0.103-0.004,0.156-0.01l1.229,2.604h0.392
			l-1.26-2.674C35.813,7.107,35.939,7.05,36.061,6.979z M35.022,6.871h-1.044V3.032h1.044c0.185,0,0.356,0.025,0.516,0.072
			c0.159,0.048,0.296,0.12,0.414,0.214c0.116,0.095,0.21,0.221,0.277,0.378c0.069,0.157,0.104,0.34,0.104,0.551v1.399
			c0,0.279-0.048,0.499-0.14,0.659c-0.093,0.16-0.207,0.283-0.341,0.367c-0.134,0.085-0.277,0.14-0.429,0.164
			C35.273,6.86,35.14,6.871,35.022,6.871z M39.255,2.676l-1.734,7.146h0.383l0.412-1.694h2.229l0.404,1.694h0.393l-1.726-7.146
			H39.255z M38.398,7.77l1.043-4.278l1.012,4.278H38.398z M44.781,3.063c-0.152-0.129-0.331-0.226-0.532-0.292
			c-0.203-0.064-0.423-0.096-0.655-0.096h-1.416v7.146h0.361V7.229h1.055c0.155,0,0.334-0.017,0.525-0.052
			c0.194-0.031,0.376-0.104,0.548-0.218s0.315-0.272,0.427-0.479c0.114-0.208,0.172-0.486,0.172-0.833V4.248
			c0-0.265-0.045-0.497-0.131-0.694C45.049,3.356,44.931,3.192,44.781,3.063z M44.902,5.646c0,0.279-0.045,0.499-0.137,0.659
			c-0.096,0.16-0.207,0.283-0.341,0.367c-0.134,0.085-0.277,0.14-0.43,0.164c-0.15,0.024-0.287,0.035-0.401,0.035h-1.055V3.032
			h1.055c0.185,0,0.356,0.025,0.516,0.072c0.159,0.048,0.296,0.12,0.411,0.214c0.117,0.095,0.21,0.221,0.28,0.378
			c0.069,0.157,0.102,0.34,0.102,0.551V5.646z M46.565,2.676h-0.36v7.146h2.787V9.466h-2.427V2.676z M51.553,2.676l-1.735,7.146
			h0.382l0.414-1.694h2.229l0.405,1.694h0.392l-1.724-7.146H51.553z M50.696,7.77l1.042-4.278l1.013,4.278H50.696z M57.2,2.676
			v6.043l-2.386-6.043h-0.341v7.146h0.363V3.778l2.396,6.044h0.331V2.676H57.2z"/>
	</g>
</g>
<g>
	<g>
		<path fill-rule="evenodd" clip-rule="evenodd" fill="#F3F5F2" d="M20.275,5.92c-0.232-0.295-3.319-3.828-6.501-0.47
			c3.442,0.376,2.791,4.634,5.107,4.698C21.198,10.208,20.691,6.453,20.275,5.92z M19.811,4.511
			C17.578-1.236,2.961,0.556,2.628,8.736c-0.116,2.845,5.365,3.857,7.43,0.472C12.854,4.627,16.374,0.772,19.811,4.511z"/>
	</g>
</g>
</svg>
