<?xml version="1.0" encoding="utf-8"?>
<!-- Generator: Adobe Illustrator 16.0.0, SVG Export Plug-In . SVG Version: 6.00 Build 0)  -->
<!DOCTYPE svg PUBLIC "-//W3C//DTD SVG 1.1//EN" "http://www.w3.org/Graphics/SVG/1.1/DTD/svg11.dtd">
<svg version="1.1" id="Layer_2" xmlns="http://www.w3.org/2000/svg" xmlns:xlink="http://www.w3.org/1999/xlink" x="0px" y="0px"
	 width="4000px" height="4000px" viewBox="0 0 4000 4000" enable-background="new 0 0 4000 4000" xml:space="preserve">
<path fill="#F3F4F2" d="M2673.589,1087.73c-52.003-40.7-298.204-428.506-822.042,391.599
	c-211.905,331.754-731.248,234.486-630.664-146.85C1370.874,763.834,2504.633,603.916,2673.589,1087.73z"/>
<path fill="#F3F4F2" d="M2624.481,1576.598c90.331,1.102,151.113-100.742,126.796-257.065
	c-24.316-156.324-173.693-288.331-342.175-270.962c-168.482,17.37-234.486,114.638-234.486,114.638s204.958,60.793,244.907,192.8
	C2441.32,1428.033,2482.053,1574.861,2624.481,1576.598z"/>
<g>
	<path fill="#F3F4F2" d="M346.277,2879.244v-743H491.98c24.094,0,46.609,3.359,67.531,10.078
		c20.906,6.719,39.172,16.797,54.766,30.234s27.828,30.406,36.703,50.906c8.859,20.5,13.297,44.547,13.297,72.109v145.281
		c0,36.063-5.859,64.875-17.563,86.438c-11.719,21.563-26.438,38.188-44.172,49.844c-17.75,11.672-36.547,19.281-56.422,22.813
		s-37.969,5.297-54.281,5.297H383.277v270H346.277z M491.965,2572.244c12.063,0,25.922-1.234,41.547-3.703
		s30.359-8.141,44.219-16.984c13.844-8.844,25.563-21.578,35.156-38.203s14.391-39.438,14.391-68.453v-145.375
		c0-21.922-3.563-41.016-10.656-57.297c-7.109-16.281-16.703-29.359-28.766-39.266c-12.078-9.906-26.281-17.328-42.625-22.281
		s-34.094-7.438-53.266-7.438H383.277v399H491.965z"/>
	<path fill="#F3F4F2" d="M1060.228,2879.244l-41.422-176H789.415l-42.484,176h-39.297l178.422-743h37.172l177.344,743H1060.228z
		 M797.915,2666.244h211.328l-104.078-444.969L797.915,2666.244z"/>
	<path fill="#F3F4F2" d="M1186.304,2879.244v-743h145.219c24.031,0,46.469,3.375,67.313,10.094s39.031,16.813,54.578,30.25
		s27.922,30.422,37.109,50.938c9.188,20.531,13.781,44.578,13.781,72.172v145.422c0,24.781-3.016,46.188-9.016,64.219
		c-6.016,18.047-13.969,33.078-23.875,45.109s-21.031,21.766-33.406,29.188c-12.375,7.438-25.266,13.266-38.703,17.516
		l129.422,278.094h-40.328l-126.219-271.063c-5.656,0.719-10.969,1.063-15.906,1.063c-4.953,0-9.906,0-14.844,0h-107.125v270
		H1186.304z M1331.507,2572.244c12.031,0,25.828-1.234,41.391-3.703s30.25-8.141,44.047-16.984s25.469-21.578,35.031-38.203
		c9.547-16.625,14.328-39.438,14.328-68.453v-145.375c0-21.922-3.547-41.016-10.625-57.297s-16.625-29.359-28.656-39.266
		s-26.172-17.328-42.453-22.281s-33.969-7.438-53.063-7.438h-107.203v399H1331.507z"/>
	<path fill="#F3F4F2" d="M1941.656,2879.244l-41.422-176h-229.391l-42.484,176h-39.297l178.422-743h37.172l177.344,743H1941.656z
		 M1679.344,2666.244h211.328l-104.078-444.969L1679.344,2666.244z"/>
	<path fill="#F3F4F2" d="M2067.732,2879.244v-743h145.703c24.094,0,46.609,3.359,67.531,10.078
		c20.906,6.719,39.172,16.797,54.766,30.234s27.828,30.406,36.703,50.906c8.859,20.5,13.297,44.547,13.297,72.109v145.281
		c0,36.063-5.859,64.875-17.563,86.438c-11.719,21.563-26.438,38.188-44.172,49.844c-17.75,11.672-36.547,19.281-56.422,22.813
		s-37.969,5.297-54.281,5.297h-108.563v270H2067.732z M2213.42,2572.244c12.063,0,25.922-1.234,41.547-3.703
		s30.359-8.141,44.219-16.984c13.844-8.844,25.563-21.578,35.156-38.203s14.391-39.438,14.391-68.453v-145.375
		c0-21.922-3.563-41.016-10.656-57.297c-7.109-16.281-16.703-29.359-28.766-39.266c-12.078-9.906-26.281-17.328-42.625-22.281
		s-34.094-7.438-53.266-7.438h-108.688v399H2213.42z"/>
	<path fill="#F3F4F2" d="M2481.904,2879.244v-743h37v706h249.578v37H2481.904z"/>
	<path fill="#F3F4F2" d="M3206.452,2879.244l-41.422-176H2935.64l-42.484,176h-39.297l178.422-743h37.172l177.344,743H3206.452z
		 M2944.14,2666.244h211.328l-104.078-444.969L2944.14,2666.244z"/>
	<path fill="#F3F4F2" d="M3615.591,2879.244l-246.063-628.359v628.359h-37v-743h35l245,628.359v-628.359h37v743H3615.591z"/>
</g>
</svg>
