<?xml version="1.0" encoding="utf-8"?>
<!-- Generator: Adobe Illustrator 16.0.0, SVG Export Plug-In . SVG Version: 6.00 Build 0)  -->
<!DOCTYPE svg PUBLIC "-//W3C//DTD SVG 1.1//EN" "http://www.w3.org/Graphics/SVG/1.1/DTD/svg11.dtd">
<svg version="1.1" id="Layer_1" xmlns="http://www.w3.org/2000/svg" xmlns:xlink="http://www.w3.org/1999/xlink" x="0px" y="0px"
	 width="38.4px" height="44.16px" viewBox="10.8 7.92 38.4 44.16" enable-background="new 10.8 7.92 38.4 44.16"
	 xml:space="preserve">
<polygon fill="#FBCE09" points="49.119,18.955 49.124,41.035 30.007,52.081 10.882,41.045 10.875,18.965 29.993,7.919 "/>
<g>
	<path fill="#F3F5F2" d="M23.322,23.759v12.573h12.694V23.759H23.322z M34.973,35.285c-0.91,0-9.695,0-10.604,0
		c0-0.906,0-9.575,0-10.482c0.91,0,9.691,0,10.604,0C34.973,25.71,34.973,34.381,34.973,35.285z"/>
	<path fill="#F3F5F2" d="M38.167,20.8c-0.735-0.503-3.14,1.936-3.14,1.936s-2.092,2.246-2.92,3.221
		c0.123,0.199,0.293,0.408,0.5,0.607c0.188,0.182,0.392,0.334,0.58,0.444c0.938-0.874,3.103-3.067,3.103-3.067
		S38.902,21.304,38.167,20.8z"/>
	<path fill="#F3F5F2" d="M31.952,26.142c-0.896,1.061-1.565,1.947-1.95,2.563c-0.124,0-1.2,0.02-1.95,0.801
		c-0.795,0.832-0.75,2.848-0.75,2.848s0.51-0.791,1.463-1.015c1.105-0.256,1.604-0.954,1.752-2.099
		c0.6-0.406,1.465-1.124,2.496-2.07c-0.187-0.112-0.385-0.255-0.57-0.438C32.241,26.54,32.075,26.336,31.952,26.142z"/>
	
		<rect x="33.689" y="24.699" transform="matrix(-0.722 -0.6919 0.6919 -0.722 39.7798 73.7398)" fill="#F3F5F2" width="2.032" height="8.357"/>
	<path fill="#F3F5F2" d="M39.803,24.541l-0.98-0.936c-0.131-0.129-0.389-0.083-0.563,0.102l-1.107,1.15l1.469,1.407l1.104-1.154
		C39.902,24.926,39.938,24.667,39.803,24.541z"/>
	<polygon fill="#F3F5F2" points="29.413,34.264 29.489,34.334 32.241,32.906 30.775,31.5 	"/>
</g>
</svg>
