<?xml version="1.0" encoding="utf-8"?>
<!-- Generator: Adobe Illustrator 16.0.0, SVG Export Plug-In . SVG Version: 6.00 Build 0)  -->
<!DOCTYPE svg PUBLIC "-//W3C//DTD SVG 1.1//EN" "http://www.w3.org/Graphics/SVG/1.1/DTD/svg11.dtd">
<svg version="1.1" id="Layer_1" xmlns="http://www.w3.org/2000/svg" xmlns:xlink="http://www.w3.org/1999/xlink" x="0px" y="0px"
	 width="38.4px" height="44.16px" viewBox="10.8 7.92 38.4 44.16" enable-background="new 10.8 7.92 38.4 44.16"
	 xml:space="preserve">
<polygon fill="#F16374" points="49.138,18.989 49.105,41.069 29.967,52.081 10.862,41.012 10.895,18.931 30.033,7.919 "/>
<path fill="#F3F5F2" d="M36.6,23.52H23.718c-0.485,0-0.878,0.396-0.878,0.884v11.194c0,0.486,0.394,0.883,0.878,0.883H36.6
	c0.486,0,0.879-0.396,0.879-0.883V24.404C37.479,23.916,37.086,23.52,36.6,23.52z M27.623,35.598c0.209-1.221,1.264-2.15,2.536-2.15
	c1.272,0,2.327,0.932,2.536,2.15H27.623z M36.6,35.262c0-0.287-0.229-0.514-0.516-0.514h-0.936
	c-0.121-0.471-0.313-0.926-0.553-1.338l0.662-0.67c0.201-0.201,0.201-0.531,0-0.732l-1.093-1.101c-0.202-0.202-0.526-0.202-0.729,0
	l-0.668,0.667c-0.408-0.244-0.859-0.434-1.33-0.555v-0.943c0-0.285-0.224-0.519-0.51-0.519h-1.543c-0.285,0-0.509,0.232-0.509,0.519
	v0.943c-0.469,0.121-0.921,0.311-1.33,0.555l-0.666-0.667c-0.202-0.202-0.528-0.202-0.729,0l-1.094,1.099
	c-0.201,0.203-0.201,0.531,0,0.734l0.664,0.67c-0.242,0.412-0.431,0.867-0.552,1.34h-0.937c-0.284,0-0.515,0.225-0.515,0.512v-9.385
	H36.6V35.262z"/>
</svg>
