<?xml version="1.0" encoding="utf-8"?>
<!-- Generator: Adobe Illustrator 16.0.0, SVG Export Plug-In . SVG Version: 6.00 Build 0)  -->
<!DOCTYPE svg PUBLIC "-//W3C//DTD SVG 1.1//EN" "http://www.w3.org/Graphics/SVG/1.1/DTD/svg11.dtd">
<svg version="1.1" id="Layer_1" xmlns="http://www.w3.org/2000/svg" xmlns:xlink="http://www.w3.org/1999/xlink" x="0px" y="0px"
	 width="38.4px" height="44.16px" viewBox="10.8 7.92 38.4 44.16" enable-background="new 10.8 7.92 38.4 44.16"
	 xml:space="preserve">
<polygon fill="#42B3CB" points="49.12,18.959 49.123,41.038 30.003,52.081 10.88,41.043 10.877,18.961 29.997,7.919 "/>
<g>
	<g>
		<path fill="#F3F5F2" d="M36.885,34.664l0.01-0.005l-5.14-5.137l2.333-2.322l2.084-1.336L37,24.382l-0.962-0.959l-1.49,0.825
			l-1.343,2.074l-2.331,2.32l-2.313-2.313l-0.01-3.053l-3.135-0.836l-0.335,0.331l1.667,1.658l-1.625,1.621l-1.666-1.657
			l-0.335,0.331l0.841,3.119l2.982,0.009l-0.018,0.02l2.356,2.354l-0.871,0.868l-0.572-0.568l-0.881,0.877l0.274,0.271
			c-0.792,0.303-2.977,2.479-3.28,3.266l-0.272-0.271l-0.88,0.878l2.023,2.014l0.882-0.877L25.43,36.41
			c0.792-0.301,2.978-2.479,3.28-3.266l0.273,0.272l0.881-0.879l-0.57-0.565l0.869-0.865L35.3,36.24l0.009-0.008
			c0.438,0.424,1.137,0.424,1.564-0.008C37.307,35.797,37.309,35.104,36.885,34.664z M36.461,35.813
			c-0.191,0.192-0.505,0.193-0.699,0c-0.189-0.19-0.193-0.5,0-0.693c0.194-0.191,0.506-0.191,0.699,0
			C36.656,35.309,36.656,35.619,36.461,35.813z"/>
	</g>
</g>
</svg>
