<?xml version="1.0" encoding="utf-8"?>
<!-- Generator: Adobe Illustrator 16.0.0, SVG Export Plug-In . SVG Version: 6.00 Build 0)  -->
<!DOCTYPE svg PUBLIC "-//W3C//DTD SVG 1.1//EN" "http://www.w3.org/Graphics/SVG/1.1/DTD/svg11.dtd">
<svg version="1.1" id="Layer_1" xmlns="http://www.w3.org/2000/svg" xmlns:xlink="http://www.w3.org/1999/xlink" x="0px" y="0px"
	 width="38.4px" height="44.16px" viewBox="10.8 7.92 38.4 44.16" enable-background="new 10.8 7.92 38.4 44.16"
	 xml:space="preserve">
<polygon fill="#EB4924" points="49.121,18.96 49.122,41.041 30,52.081 10.878,41.04 10.878,18.96 30,7.919 "/>
<g>
	<g>
		<path fill="#F3F5F2" d="M35.855,21.976v0.612H35.48c-0.135,0-0.246,0.109-0.246,0.245s0.111,0.245,0.246,0.245h0.375v1.763H35.48
			c-0.135,0-0.246,0.109-0.246,0.244c0,0.136,0.111,0.245,0.246,0.245h0.375v1.763H35.48c-0.135,0-0.246,0.109-0.246,0.245
			c0,0.136,0.111,0.245,0.246,0.245h0.375v1.763H35.48c-0.135,0-0.246,0.109-0.246,0.245c0,0.135,0.111,0.244,0.246,0.244h0.375
			V31.6H35.48c-0.135,0-0.246,0.108-0.246,0.244c0,0.135,0.111,0.244,0.246,0.244h0.375v2.824h-2.828v-0.354
			c0-0.137-0.109-0.244-0.244-0.244c-0.137,0-0.245,0.107-0.245,0.244v0.354h-1.741v-0.354c0-0.137-0.109-0.244-0.244-0.244
			c-0.136,0-0.246,0.107-0.246,0.244v0.354h-1.741v-0.354c0-0.137-0.109-0.244-0.244-0.244c-0.136,0-0.245,0.107-0.245,0.244v0.354
			h-1.741v-0.354c0-0.137-0.11-0.244-0.245-0.244c-0.135,0-0.245,0.107-0.245,0.244v0.354h-1.741v-0.354
			c0-0.137-0.109-0.244-0.245-0.244c-0.135,0-0.245,0.107-0.245,0.244v0.354H22.92v1.225h14.16V21.976H35.855z M23.369,33.361
			h10.688c0.135,0,0.244-0.109,0.244-0.245V22.343c0-0.135-0.045-0.145-0.102-0.021l-1.432,3.145
			c-0.057,0.123-0.209,0.205-0.344,0.184l-1.492-0.244c-0.136-0.022-0.299,0.055-0.365,0.172l-2.623,4.529
			c-0.067,0.117-0.23,0.195-0.364,0.175l-1.55-0.236c-0.134-0.021-0.326,0.033-0.431,0.119l-2.287,1.881
			c-0.104,0.086-0.189,0.266-0.189,0.4v0.671C23.124,33.252,23.233,33.361,23.369,33.361z M24.19,28.896
			c0.203,0.204,0.534,0.204,0.738,0l3.53-3.531l0.546,0.546c0.204,0.204,0.369,0.136,0.369-0.152v-2.263
			c0-0.288-0.233-0.521-0.521-0.521H26.59c-0.288,0-0.356,0.165-0.152,0.368l0.546,0.546l-3.531,3.531
			c-0.204,0.204-0.204,0.535,0,0.738L24.19,28.896z"/>
	</g>
</g>
</svg>
