<?xml version="1.0" encoding="utf-8"?>
<!-- Generator: Adobe Illustrator 16.0.0, SVG Export Plug-In . SVG Version: 6.00 Build 0)  -->
<!DOCTYPE svg PUBLIC "-//W3C//DTD SVG 1.1//EN" "http://www.w3.org/Graphics/SVG/1.1/DTD/svg11.dtd">
<svg version="1.1" id="Layer_1" xmlns="http://www.w3.org/2000/svg" xmlns:xlink="http://www.w3.org/1999/xlink" x="0px" y="0px"
	 width="38.4px" height="44.16px" viewBox="10.8 7.92 38.4 44.16" enable-background="new 10.8 7.92 38.4 44.16"
	 xml:space="preserve">
<polygon fill="#66C07B" points="49.124,18.965 49.119,41.046 29.995,52.081 10.876,41.035 10.881,18.955 30.005,7.919 "/>
<g>
	<g>
		<path fill="#F3F5F2" d="M35.545,22.92H24.456c-0.843,0-1.534,0.691-1.534,1.536v11.088c0,0.845,0.691,1.536,1.534,1.536h11.089
			c0.844,0,1.533-0.691,1.533-1.536V24.456C37.08,23.611,36.389,22.92,35.545,22.92z M35.146,24.189
			c0.396,0,0.725,0.324,0.725,0.725s-0.324,0.725-0.725,0.725c-0.402,0-0.727-0.324-0.727-0.725S34.746,24.189,35.146,24.189z
			 M32.885,24.188c0.4,0,0.725,0.324,0.725,0.726s-0.322,0.726-0.725,0.726c-0.4,0-0.725-0.324-0.725-0.726
			S32.484,24.188,32.885,24.188z M35.918,35.764H24.084V26.68h11.833L35.918,35.764L35.918,35.764z M28.844,31.979H26.58v2.265
			h2.264V31.979z M33.514,31.979h-2.266v2.265h2.266V31.979z M28.844,28.3H26.58v2.263h2.264V28.3z M33.514,28.3h-2.266v2.263h2.266
			V28.3z"/>
	</g>
</g>
</svg>
